0
SECTION
2
HEADER
9
$INSUNITS
70
4
9
$ACADVER
1
AC1014
9
$HANDSEED
5
FFFF
0
ENDSEC
0
SECTION
2
TABLES
0
TABLE
2
VPORT
5
8
100
AcDbSymbolTable
0
ENDTAB
0
TABLE
2
LTYPE
5
5
100
AcDbSymbolTable
0
LTYPE
5
14
100
AcDbSymbolTableRecord
100
AcDbLinetypeTableRecord
2
BYBLOCK
70
0
0
LTYPE
5
15
100
AcDbSymbolTableRecord
100
AcDbLinetypeTableRecord
2
BYLAYER
70
0
0
ENDTAB
0
TABLE
2
LAYER
5
2
100
AcDbSymbolTable
70
2
0
LAYER
5
50
100
AcDbSymbolTableRecord
100
AcDbLayerTableRecord
2
0
70
0
6
CONTINUOUS
0
ENDTAB
0
TABLE
2
STYLE
5
3
100
AcDbSymbolTable
70
1
0
STYLE
5
11
100
AcDbSymbolTableRecord
100
AcDbTextStyleTableRecord
2
STANDARD
70
0
0
ENDTAB
0
TABLE
2
VIEW
5
6
100
AcDbSymbolTable
70
0
0
ENDTAB
0
TABLE
2
UCS
5
7
100
AcDbSymbolTable
70
0
0
ENDTAB
0
TABLE
2
APPID
5
9
100
AcDbSymbolTable
70
2
0
APPID
5
12
100
AcDbSymbolTableRecord
100
AcDbRegAppTableRecord
2
ACAD
70
0
0
ENDTAB
0
TABLE
2
DIMSTYLE
5
A
100
AcDbSymbolTable
70
1
0
ENDTAB
0
TABLE
2
BLOCK_RECORD
5
1
100
AcDbSymbolTable
70
1
0
BLOCK_RECORD
5
1F
100
AcDbSymbolTableRecord
100
AcDbBlockTableRecord
2
*MODEL_SPACE
0
BLOCK_RECORD
5
1B
100
AcDbSymbolTableRecord
100
AcDbBlockTableRecord
2
*PAPER_SPACE
0
ENDTAB
0
ENDSEC
0
SECTION
2
BLOCKS
0
BLOCK
5
20
100
AcDbEntity
100
AcDbBlockBegin
2
*MODEL_SPACE
0
ENDBLK
5
21
100
AcDbEntity
100
AcDbBlockEnd
0
BLOCK
5
1C
100
AcDbEntity
100
AcDbBlockBegin
2
*PAPER_SPACE
0
ENDBLK
5
1D
100
AcDbEntity
100
AcDbBlockEnd
0
ENDSEC
0
SECTION
2
ENTITIES
0
LWPOLYLINE
5
100
100
AcDbEntity
8
0
100
AcDbPolyline
90
8
70
1
43
0.0
10
303.05570831651289
20
-80.801268158778413
10
303.05570831651289
20
-93.801268158778441
42
-0.41421356237303264
10
302.55570831651289
20
-94.301268158778427
10
289.55570831651289
20
-94.301268158778413
42
-0.41421356237308465
10
289.05570831651283
20
-93.801268158778427
10
289.05570831651283
20
-80.801268158778399
42
-0.41421356237300133
10
289.55570831651289
20
-80.301268158778413
10
302.55570831651283
20
-80.301268158778413
42
-0.41421356237311585
0
LWPOLYLINE
5
101
100
AcDbEntity
8
0
100
AcDbPolyline
90
8
70
1
43
0.0
10
304.99370831651288
20
-78.301268158778413
10
310.99370831651288
20
-78.301268158778413
42
-0.41421356237309509
10
311.49370831651288
20
-78.801268158778427
10
311.49370831651288
20
-95.801268158778441
42
-0.41421356237308465
10
310.99370831651288
20
-96.301268158778427
10
304.99370831651282
20
-96.301268158778427
42
-0.41421356237309509
10
304.49370831651282
20
-95.801268158778413
10
304.49370831651288
20
-78.801268158778413
42
-0.41421356237308982
0
LWPOLYLINE
5
102
100
AcDbEntity
8
0
100
AcDbPolyline
90
8
70
1
43
0.0
10
272.09945831651288
20
-80.801268158778413
10
272.09945831651288
20
-93.801268158778441
42
-0.41421356237300133
10
271.59945831651282
20
-94.301268158778427
10
258.59945831651282
20
-94.301268158778427
42
-0.41421356237309509
10
258.09945831651282
20
-93.801268158778427
10
258.09945831651282
20
-80.801268158778399
42
-0.41421356237303264
10
258.59945831651282
20
-80.301268158778413
10
271.59945831651282
20
-80.301268158778427
42
-0.41421356237308465
0
LWPOLYLINE
5
103
100
AcDbEntity
8
0
100
AcDbPolyline
90
8
70
1
43
0.0
10
287.61770831651285
20
-78.801268158778427
10
287.61770831651285
20
-95.801268158778441
42
-0.41421356237308465
10
287.11770831651285
20
-96.301268158778427
10
281.11770831651285
20
-96.301268158778427
42
-0.41421356237309509
10
280.61770831651285
20
-95.801268158778413
10
280.61770831651285
20
-78.801268158778413
42
-0.41421356237308982
10
281.11770831651285
20
-78.301268158778427
10
287.11770831651285
20
-78.301268158778413
42
-0.41421356237309509
0
LWPOLYLINE
5
104
100
AcDbEntity
8
0
100
AcDbPolyline
90
54
70
1
43
0.0
10
317.48695831651281
20
-136.92626815877847
10
317.48695831651281
20
-37.676268158778399
42
0.99999999999999989
10
313.48695831651287
20
-37.676268158778385
10
313.48695831651287
20
-38.176268158778377
42
-0.41421356237309509
10
311.98695831651287
20
-39.676268158778377
10
216.21195831651281
20
-39.67626815877837
42
-0.41421356237309509
10
214.71195831651283
20
-38.176268158778385
10
214.71195831651283
20
-37.676268158778385
42
0.99999999999999989
10
210.71195831651283
20
-37.676268158778385
10
210.71195831651283
20
-38.176268158778377
42
-0.41421356237309509
10
209.21195831651286
20
-39.676268158778377
10
140.01195831651285
20
-39.676268158778392
42
-0.41421356237309509
10
138.51195831651285
20
-38.176268158778385
10
138.51195831651285
20
-37.676268158778385
42
0.99999999999999989
10
134.51195831651285
20
-37.676268158778385
10
134.51195831651285
20
-38.176268158778377
42
-0.41421356237309509
10
133.01195831651285
20
-39.676268158778377
10
37.23695831651284
20
-39.676268158778385
42
-0.41421356237309509
10
35.73695831651284
20
-38.176268158778385
10
35.73695831651284
20
-37.676268158778385
42
0.99999999999999989
10
31.736958316512833
20
-37.676268158778385
10
31.736958316512837
20
-136.92626815877844
42
0.99999999999999989
10
35.736958316512833
20
-136.92626815877847
10
35.736958316512826
20
-136.42626815877847
42
-0.41421356237310197
10
37.236958316512833
20
-134.92626815877844
10
105.96195831651283
20
-134.92626815877844
42
-0.41421356237309509
10
107.46195831651283
20
-136.42626815877844
10
107.46195831651283
20
-136.92626815877841
42
0.99999999999999989
10
111.46195831651282
20
-136.92626815877847
10
111.46195831651282
20
-136.42626815877847
42
-0.41421356237310197
10
112.96195831651282
20
-134.92626815877844
10
121.93695831651284
20
-134.92626815877844
10
125.81551170710617
20
-131.04771476818513
42
-0.19891236737954268
10
126.16906509769939
20
-130.90126815877846
10
166.61195831651281
20
-130.90126815877844
42
0.414213562373069
10
167.61195831651281
20
-129.90126815877846
10
167.61195831651281
20
-117.90126815877841
42
-0.41421356237309509
10
168.11195831651281
20
-117.40126815877841
10
181.11195831651284
20
-117.40126815877841
42
-0.41421356237309509
10
181.61195831651284
20
-117.90126815877841
10
181.61195831651284
20
-129.90126815877846
42
0.41421356237311063
10
182.61195831651287
20
-130.90126815877846
10
223.05485153532629
20
-130.90126815877849
42
-0.19891236737964496
10
223.40840492591954
20
-131.04771476818519
10
227.28695831651282
20
-134.92626815877844
10
236.26195831651287
20
-134.92626815877844
42
-0.41421356237309509
10
237.76195831651285
20
-136.42626815877844
10
237.76195831651285
20
-136.92626815877841
42
0.99999999999999989
10
241.76195831651285
20
-136.92626815877847
10
241.76195831651285
20
-136.42626815877847
42
-0.41421356237310197
10
243.26195831651285
20
-134.92626815877844
10
311.98695831651287
20
-134.92626815877844
42
-0.41421356237309509
10
313.48695831651287
20
-136.42626815877844
10
313.48695831651287
20
-136.92626815877841
42
0.99999999999999989
0
LWPOLYLINE
5
105
100
AcDbEntity
8
0
100
AcDbPolyline
90
8
70
1
43
0.0
10
163.78695831651288
20
-124.65126815877846
10
124.78695831651285
20
-124.65126815877852
42
-0.41421356237312629
10
124.28695831651285
20
-124.15126815877852
10
124.28695831651288
20
-123.65126815877851
42
-0.41421356237312629
10
124.78695831651285
20
-123.15126815877852
10
163.78695831651285
20
-123.15126815877854
42
-0.41421356237310542
10
164.28695831651282
20
-123.65126815877852
10
164.28695831651279
20
-124.15126815877849
42
-0.4142135623731783
0
LWPOLYLINE
5
106
100
AcDbEntity
8
0
100
AcDbPolyline
90
8
70
1
43
0.0
10
224.93695831651286
20
-123.65126815877844
10
224.93695831651286
20
-124.15126815877846
42
-0.41421356237315754
10
224.43695831651286
20
-124.65126815877844
10
185.4369583165128
20
-124.65126815877844
42
-0.41421356237315754
10
184.9369583165128
20
-124.15126815877846
10
184.9369583165128
20
-123.65126815877844
42
-0.41421356237313667
10
185.4369583165128
20
-123.15126815877845
10
224.43695831651291
20
-123.15126815877844
42
-0.41421356237311585
0
CIRCLE
5
107
100
AcDbEntity
8
0
100
AcDbCircle
10
315.48695831651281
20
-136.92626815877847
30
-2.2204460492503131e-15
40
1.0000000000000149
210
0
220
-0
230
1
0
CIRCLE
5
108
100
AcDbEntity
8
0
100
AcDbCircle
10
136.51195831651285
20
-37.676268158778385
30
-1.1102230246251565e-15
40
0.99999999999999711
210
-1.1869459682199748e-66
220
-4.0934146127626737e-116
230
1
0
CIRCLE
5
109
100
AcDbEntity
8
0
100
AcDbCircle
10
212.71195831651283
20
-37.676268158778385
30
-1.1102230246251565e-15
40
1.0000000000000149
210
0
220
-0
230
1
0
CIRCLE
5
110
100
AcDbEntity
8
0
100
AcDbCircle
10
33.736958316512833
20
-136.92626815877847
30
-2.2204460492503131e-15
40
1.0000000000000013
210
5.9347298410998742e-67
220
2.0467073063813368e-116
230
1
0
CIRCLE
5
111
100
AcDbEntity
8
0
100
AcDbCircle
10
239.76195831651285
20
-136.92626815877847
30
-2.2204460492503131e-15
40
1.0000000000000149
210
0
220
-0
230
1
0
CIRCLE
5
112
100
AcDbEntity
8
0
100
AcDbCircle
10
33.736958316512833
20
-37.676268158778385
30
-1.1102230246251565e-15
40
1.0000000000000013
210
5.9347298410998742e-67
220
2.0467073063813368e-116
230
1
0
CIRCLE
5
113
100
AcDbEntity
8
0
100
AcDbCircle
10
315.48695831651281
20
-37.676268158778385
30
-1.1102230246251565e-15
40
1.0000000000000149
210
0
220
-0
230
1
0
CIRCLE
5
114
100
AcDbEntity
8
0
100
AcDbCircle
10
109.46195831651282
20
-136.92626815877847
30
-2.2204460492503131e-15
40
0.99999999999999711
210
-1.1869459682199748e-66
220
-4.0934146127626737e-116
230
1
0
LWPOLYLINE
5
115
100
AcDbEntity
8
0
100
AcDbPolyline
90
8
70
1
43
0.0
10
114.93695831651286
20
-61.751268158778394
42
0.41421356237307422
10
114.43695831651284
20
-61.251268158778387
10
101.43695831651284
20
-61.251268158778402
42
0.41421356237309509
10
100.93695831651283
20
-61.751268158778387
10
100.93695831651286
20
-74.751268158778402
42
0.4142135623731002
10
101.43695831651284
20
-75.251268158778416
10
114.43695831651284
20
-75.251268158778402
42
0.41421356237309509
10
114.93695831651283
20
-74.751268158778416
0
LWPOLYLINE
5
116
100
AcDbEntity
8
0
100
AcDbPolyline
90
8
70
1
43
0.0
10
158.58695831651283
20
-61.251268158778402
42
0.4142135623731002
10
158.08695831651283
20
-61.751268158778394
10
158.08695831651283
20
-74.751268158778402
42
0.41421356237307422
10
158.58695831651283
20
-75.251268158778416
10
171.58695831651283
20
-75.251268158778402
42
0.414213562373069
10
172.08695831651283
20
-74.751268158778416
10
172.08695831651283
20
-61.751268158778394
42
0.41421356237313145
10
171.58695831651283
20
-61.251268158778409
0
LWPOLYLINE
5
117
100
AcDbEntity
8
0
100
AcDbPolyline
90
8
70
1
43
0.0
10
120.48695831651284
20
-61.251268158778402
42
0.41421356237308982
10
119.98695831651283
20
-61.751268158778394
10
119.98695831651283
20
-74.751268158778402
42
0.41421356237309509
10
120.48695831651284
20
-75.251268158778416
10
133.48695831651284
20
-75.251268158778402
42
0.41421356237308465
10
133.98695831651284
20
-74.751268158778416
10
133.98695831651284
20
-61.751268158778394
42
0.41421356237309509
10
133.48695831651284
20
-61.251268158778387
0
LWPOLYLINE
5
118
100
AcDbEntity
8
0
100
AcDbPolyline
90
8
70
1
43
0.0
10
106.19945831651285
20
-80.301268158778413
42
0.41421356237308465
10
105.69945831651285
20
-80.801268158778413
10
105.69945831651285
20
-93.801268158778427
42
0.41421356237308465
10
106.19945831651285
20
-94.301268158778427
10
119.19945831651285
20
-94.301268158778427
42
0.41421356237307422
10
119.69945831651286
20
-93.801268158778441
10
119.69945831651286
20
-80.801268158778413
42
0.4142135623730534
10
119.19945831651285
20
-80.301268158778413
0
LWPOLYLINE
5
119
100
AcDbEntity
8
0
100
AcDbPolyline
90
8
70
1
43
0.0
10
110.96195831651283
20
-42.20126815877839
42
0.41421356237308982
10
110.46195831651282
20
-42.701268158778383
10
110.46195831651282
20
-55.701268158778383
42
0.41421356237310542
10
110.96195831651283
20
-56.20126815877839
10
123.96195831651283
20
-56.201268158778383
42
0.4142135623731002
10
124.46195831651283
20
-55.70126815877839
10
124.46195831651283
20
-42.701268158778383
42
0.41421356237309509
10
123.96195831651283
20
-42.201268158778376
0
LWPOLYLINE
5
120
100
AcDbEntity
8
0
100
AcDbPolyline
90
8
70
1
43
0.0
10
129.51195831651285
20
-55.701268158778383
10
129.51195831651285
20
-42.701268158778376
42
-0.41421356237308465
10
130.01195831651285
20
-42.20126815877839
10
143.01195831651285
20
-42.201268158778376
42
-0.41421356237309509
10
143.51195831651285
20
-42.701268158778383
10
143.51195831651285
20
-55.70126815877839
42
-0.4142135623731002
10
143.01195831651285
20
-56.201268158778383
10
130.01195831651285
20
-56.201268158778397
42
-0.4142135623731002
0
LWPOLYLINE
5
121
100
AcDbEntity
8
0
100
AcDbPolyline
90
8
70
1
43
0.0
10
35.024458316512828
20
-61.251268158778402
42
0.41421356237309509
10
34.524458316512828
20
-61.751268158778394
10
34.524458316512828
20
-74.751268158778402
42
0.41421356237309509
10
35.024458316512828
20
-75.251268158778416
10
35.524458316512828
20
-75.251268158778402
42
0.41421356237308982
10
36.02445831651282
20
-74.751268158778416
10
36.024458316512828
20
-61.751268158778394
42
0.41421356237309243
10
35.524458316512835
20
-61.251268158778409
0
LWPOLYLINE
5
122
100
AcDbEntity
8
0
100
AcDbPolyline
90
8
70
1
43
0.0
10
56.524458316512835
20
-61.251268158778402
42
0.41421356237309509
10
56.024458316512835
20
-61.751268158778394
10
56.024458316512835
20
-74.751268158778402
42
0.41421356237309509
10
56.524458316512835
20
-75.251268158778416
10
57.024458316512835
20
-75.251268158778402
42
0.41421356237308982
10
57.524458316512828
20
-74.751268158778416
10
57.524458316512835
20
-61.751268158778394
42
0.41421356237309509
10
57.024458316512835
20
-61.251268158778409
0
LWPOLYLINE
5
123
100
AcDbEntity
8
0
100
AcDbPolyline
90
8
70
1
43
0.0
10
82.386958316512832
20
-61.251268158778402
42
0.4142135623731002
10
81.886958316512846
20
-61.751268158778394
10
81.886958316512846
20
-74.751268158778402
42
0.4142135623731002
10
82.386958316512832
20
-75.251268158778416
10
95.386958316512832
20
-75.251268158778402
42
0.41421356237309509
10
95.886958316512818
20
-74.751268158778416
10
95.886958316512818
20
-61.751268158778394
42
0.4142135623731002
10
95.386958316512832
20
-61.251268158778409
0
LWPOLYLINE
5
124
100
AcDbEntity
8
0
100
AcDbPolyline
90
8
70
1
43
0.0
10
105.41195831651282
20
-42.701268158778383
42
0.41421356237308982
10
104.91195831651282
20
-42.20126815877839
10
91.911958316512838
20
-42.20126815877839
42
0.41421356237306384
10
91.411958316512823
20
-42.701268158778376
10
91.411958316512852
20
-55.701268158778383
42
0.41421356237310542
10
91.911958316512838
20
-56.20126815877839
10
104.91195831651282
20
-56.201268158778383
42
0.4142135623731002
10
105.41195831651282
20
-55.70126815877839
0
LWPOLYLINE
5
125
100
AcDbEntity
8
0
100
AcDbPolyline
90
8
70
1
43
0.0
10
272.88695831651285
20
-61.251268158778402
42
0.41421356237307422
10
272.38695831651279
20
-61.751268158778394
10
272.38695831651285
20
-74.751268158778402
42
0.41421356237313145
10
272.88695831651285
20
-75.251268158778416
10
285.88695831651285
20
-75.251268158778402
42
0.41421356237301699
10
286.38695831651285
20
-74.751268158778416
10
286.38695831651285
20
-61.751268158778394
42
0.41421356237312101
10
285.88695831651285
20
-61.251268158778387
0
LWPOLYLINE
5
126
100
AcDbEntity
8
0
100
AcDbPolyline
90
8
70
1
43
0.0
10
139.53695831651285
20
-61.251268158778402
42
0.41421356237308982
10
139.03695831651282
20
-61.751268158778394
10
139.03695831651282
20
-74.751268158778402
42
0.41421356237309509
10
139.53695831651285
20
-75.251268158778416
10
152.53695831651282
20
-75.251268158778402
42
0.41421356237309509
10
153.03695831651285
20
-74.751268158778416
10
153.03695831651285
20
-61.751268158778394
42
0.41421356237307422
10
152.53695831651282
20
-61.251268158778409
0
LWPOLYLINE
5
127
100
AcDbEntity
8
0
100
AcDbPolyline
90
8
70
1
43
0.0
10
63.336958316512835
20
-61.251268158778402
42
0.41421356237309509
10
62.836958316512835
20
-61.751268158778394
10
62.836958316512835
20
-74.751268158778402
42
0.41421356237309509
10
63.336958316512835
20
-75.251268158778416
10
76.33695831651282
20
-75.251268158778402
42
0.41421356237308982
10
76.836958316512835
20
-74.751268158778416
10
76.83695831651282
20
-61.751268158778394
42
0.41421356237309509
10
76.33695831651282
20
-61.251268158778409
0
LWPOLYLINE
5
128
100
AcDbEntity
8
0
100
AcDbPolyline
90
8
70
1
43
0.0
10
53.811958316512829
20
-42.20126815877839
42
0.41421356237309509
10
53.311958316512829
20
-42.701268158778383
10
53.311958316512829
20
-55.701268158778383
42
0.41421356237310542
10
53.811958316512829
20
-56.20126815877839
10
66.811958316512829
20
-56.201268158778383
42
0.4142135623731002
10
67.311958316512829
20
-55.70126815877839
10
67.311958316512829
20
-42.701268158778383
42
0.41421356237309509
10
66.811958316512829
20
-42.20126815877839
0
LWPOLYLINE
5
129
100
AcDbEntity
8
0
100
AcDbPolyline
90
8
70
1
43
0.0
10
177.63695831651285
20
-61.251268158778402
42
0.4142135623730222
10
177.13695831651285
20
-61.751268158778394
10
177.13695831651282
20
-74.751268158778402
42
0.41421356237312101
10
177.63695831651285
20
-75.251268158778416
10
190.63695831651285
20
-75.251268158778402
42
0.414213562373069
10
191.13695831651285
20
-74.751268158778416
10
191.13695831651285
20
-61.751268158778394
42
0.41421356237313145
10
190.63695831651285
20
-61.251268158778387
0
LWPOLYLINE
5
130
100
AcDbEntity
8
0
100
AcDbPolyline
90
8
70
1
43
0.0
10
267.33695831651283
20
-61.751268158778394
42
0.41421356237312101
10
266.83695831651283
20
-61.251268158778416
10
253.83695831651283
20
-61.251268158778402
42
0.414213562373069
10
253.33695831651283
20
-61.751268158778387
10
253.33695831651283
20
-74.751268158778402
42
0.41421356237313145
10
253.83695831651283
20
-75.251268158778416
10
266.83695831651283
20
-75.251268158778402
42
0.41421356237301699
10
267.33695831651283
20
-74.751268158778416
0
LWPOLYLINE
5
131
100
AcDbEntity
8
0
100
AcDbPolyline
90
8
70
1
43
0.0
10
292.19945831651285
20
-61.251268158778402
42
0.41421356237307422
10
291.69945831651279
20
-61.751268158778394
10
291.69945831651285
20
-74.751268158778402
42
0.41421356237311063
10
292.19945831651279
20
-75.251268158778416
10
292.69945831651279
20
-75.251268158778402
42
0.414213562373069
10
293.19945831651285
20
-74.751268158778416
10
293.19945831651285
20
-61.751268158778394
42
0.41421356237315227
10
292.69945831651279
20
-61.251268158778409
0
LWPOLYLINE
5
132
100
AcDbEntity
8
0
100
AcDbPolyline
90
8
70
1
43
0.0
10
48.261958316512825
20
-42.701268158778383
42
0.41421356237309509
10
47.761958316512825
20
-42.20126815877839
10
34.761958316512825
20
-42.20126815877839
42
0.41421356237308982
10
34.261958316512832
20
-42.701268158778376
10
34.261958316512832
20
-55.701268158778383
42
0.4142135623730977
10
34.761958316512825
20
-56.20126815877839
10
47.761958316512825
20
-56.201268158778383
42
0.4142135623731002
10
48.261958316512832
20
-55.70126815877839
0
LWPOLYLINE
5
133
100
AcDbEntity
8
0
100
AcDbPolyline
90
8
70
1
43
0.0
10
215.73695831651287
20
-61.251268158778402
42
0.4142135623730222
10
215.23695831651287
20
-61.751268158778394
10
215.23695831651284
20
-74.751268158778402
42
0.41421356237312101
10
215.73695831651287
20
-75.251268158778416
10
228.73695831651287
20
-75.251268158778402
42
0.414213562373069
10
229.23695831651287
20
-74.751268158778416
10
229.23695831651287
20
-61.751268158778394
42
0.41421356237313145
10
228.73695831651287
20
-61.251268158778387
0
LWPOLYLINE
5
134
100
AcDbEntity
8
0
100
AcDbPolyline
90
8
70
1
43
0.0
10
58.905708316512829
20
-80.301268158778413
42
0.41421356237307422
10
58.405708316512829
20
-80.801268158778413
10
58.405708316512836
20
-93.801268158778427
42
0.41421356237307422
10
58.905708316512829
20
-94.301268158778427
10
59.405708316512829
20
-94.301268158778427
42
0.41421356237305862
10
59.905708316512829
20
-93.801268158778441
10
59.905708316512829
20
-80.801268158778413
42
0.414213562373069
10
59.405708316512829
20
-80.301268158778413
0
LWPOLYLINE
5
135
100
AcDbEntity
8
0
100
AcDbPolyline
90
8
70
1
43
0.0
10
196.68695831651286
20
-61.251268158778402
42
0.4142135623730222
10
196.18695831651286
20
-61.751268158778394
10
196.18695831651283
20
-74.751268158778402
42
0.41421356237312101
10
196.68695831651286
20
-75.251268158778416
10
209.6869583165128
20
-75.251268158778402
42
0.41421356237301699
10
210.18695831651283
20
-74.751268158778416
10
210.18695831651283
20
-61.751268158778394
42
0.41421356237312101
10
209.6869583165128
20
-61.251268158778387
0
LWPOLYLINE
5
136
100
AcDbEntity
8
0
100
AcDbPolyline
90
8
70
1
43
0.0
10
234.78695831651288
20
-61.251268158778402
42
0.4142135623730222
10
234.28695831651288
20
-61.751268158778394
10
234.28695831651285
20
-74.751268158778402
42
0.41421356237312101
10
234.78695831651288
20
-75.251268158778416
10
247.78695831651288
20
-75.251268158778402
42
0.414213562373069
10
248.28695831651288
20
-74.751268158778416
10
248.28695831651288
20
-61.751268158778394
42
0.41421356237313145
10
247.78695831651288
20
-61.251268158778387
0
LWPOLYLINE
5
137
100
AcDbEntity
8
0
100
AcDbPolyline
90
8
70
1
43
0.0
10
62.106208316512834
20
-100.35126815877842
42
0.41421356237310542
10
61.606208316512848
20
-100.85126815877842
10
61.606208316512834
20
-114.85126815877841
42
0.41421356237310542
10
62.106208316512834
20
-115.35126815877842
10
68.106208316512834
20
-115.35126815877842
42
0.41421356237309509
10
68.606208316512834
20
-114.85126815877842
10
68.606208316512834
20
-100.85126815877842
42
0.41421356237310542
10
68.106208316512834
20
-100.3512681587784
0
LWPOLYLINE
5
138
100
AcDbEntity
8
0
100
AcDbPolyline
90
8
70
1
43
0.0
10
46.668208316512825
20
-99.351268158778396
42
0.41421356237310542
10
46.168208316512832
20
-99.85126815877841
10
46.168208316512825
20
-112.8512681587784
42
0.41421356237307422
10
46.668208316512825
20
-113.35126815877841
10
59.668208316512832
20
-113.35126815877841
42
0.41421356237306384
10
60.168208316512818
20
-112.85126815877842
10
60.168208316512832
20
-99.85126815877841
42
0.41421356237310542
10
59.668208316512832
20
-99.351268158778439
0
LWPOLYLINE
5
139
100
AcDbEntity
8
0
100
AcDbPolyline
90
8
70
1
43
0.0
10
86.361958316512812
20
-42.701268158778383
42
0.41421356237308982
10
85.86195831651284
20
-42.20126815877839
10
72.861958316512826
20
-42.20126815877839
42
0.41421356237308982
10
72.36195831651284
20
-42.701268158778376
10
72.361958316512826
20
-55.701268158778383
42
0.41421356237310542
10
72.861958316512826
20
-56.20126815877839
10
85.861958316512826
20
-56.201268158778383
42
0.414213562373069
10
86.36195831651284
20
-55.70126815877839
0
LWPOLYLINE
5
140
100
AcDbEntity
8
0
100
AcDbPolyline
90
8
70
1
43
0.0
10
68.099458316512823
20
-80.301268158778413
42
0.41421356237305862
10
67.599458316512823
20
-80.801268158778399
10
67.599458316512823
20
-93.801268158778427
42
0.414213562373069
10
68.099458316512823
20
-94.301268158778427
10
81.099458316512823
20
-94.301268158778427
42
0.41421356237307422
10
81.599458316512838
20
-93.801268158778441
10
81.599458316512823
20
-80.801268158778413
42
0.41421356237308465
10
81.099458316512823
20
-80.301268158778413
0
LWPOLYLINE
5
141
100
AcDbEntity
8
0
100
AcDbPolyline
90
8
70
1
43
0.0
10
296.69945831651285
20
-61.251268158778402
42
0.4142135623730222
10
296.19945831651285
20
-61.751268158778394
10
296.19945831651285
20
-74.751268158778402
42
0.41421356237312101
10
296.69945831651285
20
-75.251268158778416
10
309.69945831651285
20
-75.251268158778402
42
0.414213562373069
10
310.19945831651285
20
-74.751268158778416
10
310.19945831651285
20
-61.751268158778394
42
0.41421356237315227
10
309.69945831651279
20
-61.251268158778409
0
LWPOLYLINE
5
142
100
AcDbEntity
8
0
100
AcDbPolyline
90
8
70
1
43
0.0
10
282.41195831651288
20
-42.20126815877839
42
0.41421356237307422
10
281.91195831651282
20
-42.701268158778383
10
281.91195831651282
20
-55.701268158778383
42
0.41421356237311585
10
282.41195831651282
20
-56.20126815877839
10
295.41195831651288
20
-56.201268158778383
42
0.41421356237301699
10
295.91195831651282
20
-55.70126815877839
10
295.91195831651288
20
-42.701268158778383
42
0.41421356237312101
10
295.41195831651288
20
-42.20126815877839
0
LWPOLYLINE
5
143
100
AcDbEntity
8
0
100
AcDbPolyline
90
8
70
1
43
0.0
10
149.06195831651286
20
-42.20126815877839
42
0.41421356237308982
10
148.56195831651286
20
-42.701268158778383
10
148.56195831651286
20
-55.701268158778383
42
0.4142135623731002
10
149.06195831651286
20
-56.201268158778397
10
162.06195831651283
20
-56.201268158778383
42
0.414213562373069
10
162.56195831651283
20
-55.70126815877839
10
162.56195831651283
20
-42.701268158778383
42
0.41421356237313145
10
162.06195831651283
20
-42.201268158778376
0
LWPOLYLINE
5
144
100
AcDbEntity
8
0
100
AcDbPolyline
90
8
70
1
43
0.0
10
313.69945831651285
20
-61.251268158778402
42
0.41421356237307422
10
313.19945831651279
20
-61.751268158778394
10
313.19945831651285
20
-74.751268158778402
42
0.41421356237311063
10
313.69945831651279
20
-75.251268158778416
10
314.19945831651285
20
-75.251268158778402
42
0.41421356237301699
10
314.69945831651279
20
-74.751268158778416
10
314.69945831651285
20
-61.751268158778394
42
0.41421356237312101
10
314.19945831651285
20
-61.251268158778387
0
LWPOLYLINE
5
145
100
AcDbEntity
8
0
100
AcDbPolyline
90
8
70
1
43
0.0
10
87.149458316512835
20
-80.301268158778413
42
0.41421356237308465
10
86.649458316512835
20
-80.801268158778413
10
86.649458316512835
20
-93.801268158778427
42
0.41421356237308465
10
87.149458316512835
20
-94.301268158778427
10
100.14945831651282
20
-94.301268158778427
42
0.41421356237306384
10
100.64945831651283
20
-93.801268158778441
10
100.64945831651283
20
-80.801268158778413
42
0.41421356237307422
10
100.14945831651282
20
-80.301268158778413
0
LWPOLYLINE
5
146
100
AcDbEntity
8
0
100
AcDbPolyline
90
8
70
1
43
0.0
10
37.143208316512826
20
-80.301268158778413
10
54.905708316512829
20
-80.301268158778427
42
-0.41421356237307422
10
55.405708316512829
20
-80.801268158778413
10
55.405708316512836
20
-93.801268158778441
42
-0.41421356237306384
10
54.905708316512829
20
-94.301268158778427
10
37.143208316512826
20
-94.301268158778413
42
-0.41421356237307422
10
36.643208316512826
20
-93.801268158778427
10
36.643208316512819
20
-80.801268158778399
42
-0.41421356237306384
0
LWPOLYLINE
5
147
100
AcDbEntity
8
0
100
AcDbPolyline
90
8
70
1
43
0.0
10
214.94945831651285
20
-80.801268158778413
42
0.41421356237309509
10
214.44945831651285
20
-80.301268158778413
10
201.44945831651285
20
-80.301268158778413
42
0.41421356237300133
10
200.94945831651285
20
-80.801268158778399
10
200.94945831651285
20
-93.801268158778427
42
0.41421356237308465
10
201.44945831651285
20
-94.301268158778441
10
214.44945831651285
20
-94.301268158778427
42
0.41421356237303264
10
214.94945831651285
20
-93.801268158778441
0
LWPOLYLINE
5
148
100
AcDbEntity
8
0
100
AcDbPolyline
90
8
70
1
43
0.0
10
220.49945831651283
20
-80.301268158778413
42
0.41421356237304296
10
219.9994583165128
20
-80.801268158778413
10
219.9994583165128
20
-93.801268158778427
42
0.41421356237309509
10
220.49945831651283
20
-94.301268158778427
10
233.49945831651283
20
-94.301268158778427
42
0.41421356237300133
10
233.99945831651283
20
-93.801268158778441
10
233.99945831651283
20
-80.801268158778413
42
0.41421356237308465
10
233.49945831651283
20
-80.301268158778413
0
LWPOLYLINE
5
149
100
AcDbEntity
8
0
100
AcDbPolyline
90
8
70
1
43
0.0
10
56.524458316512835
20
-118.40126815877841
42
0.41421356237310542
10
56.024458316512842
20
-118.90126815877842
10
56.024458316512835
20
-131.90126815877844
42
0.41421356237310542
10
56.524458316512835
20
-132.40126815877844
10
57.024458316512835
20
-132.40126815877844
42
0.4142135623731002
10
57.524458316512828
20
-131.90126815877844
10
57.524458316512835
20
-118.90126815877842
42
0.41421356237310542
10
57.024458316512835
20
-118.40126815877841
0
LWPOLYLINE
5
150
100
AcDbEntity
8
0
100
AcDbPolyline
90
8
70
1
43
0.0
10
35.024458316512828
20
-118.40126815877841
42
0.41421356237310542
10
34.524458316512835
20
-118.90126815877842
10
34.524458316512828
20
-131.90126815877844
42
0.41421356237310542
10
35.024458316512828
20
-132.40126815877844
10
35.524458316512828
20
-132.40126815877844
42
0.41421356237309509
10
36.024458316512842
20
-131.90126815877844
10
36.024458316512828
20
-118.90126815877842
42
0.41421356237310542
10
35.524458316512835
20
-118.40126815877841
0
LWPOLYLINE
5
151
100
AcDbEntity
8
0
100
AcDbPolyline
90
8
70
1
43
0.0
10
77.624458316512829
20
-99.351268158778396
42
0.41421356237310542
10
77.124458316512829
20
-99.85126815877841
10
77.124458316512829
20
-112.8512681587784
42
0.41421356237307422
10
77.624458316512829
20
-113.35126815877841
10
90.624458316512829
20
-113.35126815877841
42
0.41421356237307422
10
91.124458316512843
20
-112.85126815877842
10
91.124458316512829
20
-99.85126815877841
42
0.41421356237310542
10
90.624458316512829
20
-99.351268158778439
0
LWPOLYLINE
5
152
100
AcDbEntity
8
0
100
AcDbPolyline
90
8
70
1
43
0.0
10
125.24945831651283
20
-80.301268158778413
42
0.41421356237307422
10
124.74945831651283
20
-80.801268158778413
10
124.74945831651283
20
-93.801268158778427
42
0.41421356237307422
10
125.24945831651283
20
-94.301268158778441
10
138.24945831651286
20
-94.301268158778427
42
0.41421356237306384
10
138.74945831651286
20
-93.801268158778441
10
138.74945831651286
20
-80.801268158778413
42
0.41421356237307422
10
138.24945831651286
20
-80.301268158778413
0
LWPOLYLINE
5
153
100
AcDbEntity
8
0
100
AcDbPolyline
90
8
70
1
43
0.0
10
301.46195831651289
20
-99.351268158778396
42
0.4142135623730534
10
300.96195831651289
20
-99.85126815877841
10
300.96195831651289
20
-112.8512681587784
42
0.41421356237307422
10
301.46195831651283
20
-113.35126815877841
10
314.46195831651289
20
-113.35126815877841
42
0.41421356237300133
10
314.96195831651283
20
-112.85126815877842
10
314.96195831651289
20
-99.85126815877841
42
0.41421356237310542
10
314.46195831651289
20
-99.351268158778424
0
LWPOLYLINE
5
154
100
AcDbEntity
8
0
100
AcDbPolyline
90
8
70
1
43
0.0
10
144.29945831651284
20
-80.301268158778413
42
0.41421356237307422
10
143.79945831651284
20
-80.801268158778413
10
143.79945831651284
20
-93.801268158778427
42
0.41421356237307422
10
144.29945831651284
20
-94.301268158778441
10
157.29945831651284
20
-94.301268158778427
42
0.41421356237307422
10
157.79945831651281
20
-93.801268158778441
10
157.79945831651284
20
-80.801268158778413
42
0.4142135623730534
10
157.29945831651284
20
-80.301268158778413
0
LWPOLYLINE
5
155
100
AcDbEntity
8
0
100
AcDbPolyline
90
8
70
1
43
0.0
10
182.39945831651283
20
-80.301268158778413
42
0.41421356237301177
10
181.89945831651283
20
-80.801268158778413
10
181.89945831651283
20
-93.801268158778427
42
0.41421356237308465
10
182.39945831651283
20
-94.301268158778441
10
195.39945831651283
20
-94.301268158778427
42
0.41421356237303264
10
195.89945831651283
20
-93.801268158778441
10
195.89945831651283
20
-80.801268158778413
42
0.41421356237309509
10
195.39945831651283
20
-80.301268158778413
0
LWPOLYLINE
5
156
100
AcDbEntity
8
0
100
AcDbPolyline
90
8
70
1
43
0.0
10
163.34945831651285
20
-80.301268158778413
42
0.41421356237304296
10
162.84945831651285
20
-80.801268158778413
10
162.84945831651285
20
-93.801268158778427
42
0.41421356237309509
10
163.34945831651285
20
-94.301268158778441
10
176.34945831651282
20
-94.301268158778427
42
0.41421356237303264
10
176.84945831651282
20
-93.801268158778441
10
176.84945831651282
20
-80.801268158778413
42
0.41421356237309509
10
176.34945831651282
20
-80.301268158778413
0
LWPOLYLINE
5
157
100
AcDbEntity
8
0
100
AcDbPolyline
90
8
70
1
43
0.0
10
239.54945831651284
20
-80.301268158778413
42
0.41421356237304296
10
239.04945831651281
20
-80.801268158778413
10
239.04945831651281
20
-93.801268158778427
42
0.41421356237309509
10
239.54945831651284
20
-94.301268158778427
10
252.54945831651284
20
-94.301268158778427
42
0.41421356237300133
10
253.04945831651284
20
-93.801268158778441
10
253.04945831651284
20
-80.801268158778413
42
0.41421356237308465
10
252.54945831651284
20
-80.301268158778413
0
LWPOLYLINE
5
158
100
AcDbEntity
8
0
100
AcDbPolyline
90
8
70
1
43
0.0
10
228.26195831651285
20
-130.90126815877844
42
0.41421356237309509
10
228.76195831651285
20
-131.40126815877844
10
234.76195831651285
20
-131.40126815877844
42
0.41421356237310542
10
235.26195831651285
20
-130.90126815877841
10
235.26195831651285
20
-116.90126815877841
42
0.41421356237309509
10
234.76195831651285
20
-116.40126815877842
10
228.76195831651285
20
-116.40126815877841
42
0.4142135623730534
10
228.26195831651285
20
-116.90126815877844
0
LWPOLYLINE
5
159
100
AcDbEntity
8
0
100
AcDbPolyline
90
8
70
1
43
0.0
10
96.67445831651284
20
-99.351268158778396
42
0.41421356237310542
10
96.17445831651284
20
-99.85126815877841
10
96.17445831651284
20
-112.8512681587784
42
0.41421356237308465
10
96.67445831651284
20
-113.35126815877841
10
109.67445831651283
20
-113.35126815877841
42
0.41421356237306384
10
110.17445831651284
20
-112.85126815877842
10
110.17445831651284
20
-99.85126815877841
42
0.41421356237309509
10
109.67445831651283
20
-99.351268158778439
0
LWPOLYLINE
5
160
100
AcDbEntity
8
0
100
AcDbPolyline
90
8
70
1
43
0.0
10
44.730208316512829
20
-100.85126815877842
42
0.41421356237308982
10
44.230208316512829
20
-100.35126815877842
10
38.230208316512829
20
-100.35126815877842
42
0.4142135623730977
10
37.730208316512837
20
-100.85126815877841
10
37.730208316512829
20
-114.85126815877841
42
0.41421356237310542
10
38.230208316512829
20
-115.35126815877842
10
44.230208316512829
20
-115.35126815877842
42
0.41421356237307944
10
44.730208316512829
20
-114.85126815877842
0
LWPOLYLINE
5
161
100
AcDbEntity
8
0
100
AcDbPolyline
90
8
70
1
43
0.0
10
168.11195831651281
20
-42.20126815877839
42
0.4142135623730222
10
167.61195831651287
20
-42.701268158778383
10
167.61195831651281
20
-55.701268158778383
42
0.41421356237312629
10
168.11195831651281
20
-56.20126815877839
10
181.11195831651284
20
-56.201268158778383
42
0.414213562373069
10
181.61195831651284
20
-55.70126815877839
10
181.61195831651284
20
-42.701268158778383
42
0.41421356237313145
10
181.11195831651284
20
-42.201268158778376
0
LWPOLYLINE
5
162
100
AcDbEntity
8
0
100
AcDbPolyline
90
8
70
1
43
0.0
10
120.46195831651283
20
-131.40126815877844
42
0.4142135623730534
10
120.96195831651285
20
-130.90126815877844
10
120.96195831651285
20
-116.90126815877841
42
0.4142135623730534
10
120.46195831651283
20
-116.40126815877842
10
114.46195831651282
20
-116.40126815877841
42
0.41421356237309509
10
113.96195831651283
20
-116.90126815877844
10
113.96195831651282
20
-130.90126815877844
42
0.4142135623730534
10
114.46195831651282
20
-131.40126815877846
0
LWPOLYLINE
5
163
100
AcDbEntity
8
0
100
AcDbPolyline
90
8
70
1
43
0.0
10
292.26820831651287
20
-99.351268158778396
42
0.4142135623730534
10
291.76820831651287
20
-99.85126815877841
10
291.76820831651287
20
-112.8512681587784
42
0.41421356237307422
10
292.26820831651281
20
-113.35126815877841
10
292.76820831651287
20
-113.35126815877841
42
0.41421356237300133
10
293.26820831651281
20
-112.85126815877842
10
293.26820831651287
20
-99.85126815877841
42
0.41421356237310542
10
292.76820831651287
20
-99.351268158778424
0
LWPOLYLINE
5
164
100
AcDbEntity
8
0
100
AcDbPolyline
90
8
70
1
43
0.0
10
244.57445831651285
20
-118.40126815877841
42
0.4142135623730222
10
244.07445831651287
20
-118.90126815877842
10
244.07445831651285
20
-131.90126815877844
42
0.41421356237310542
10
244.57445831651285
20
-132.40126815877844
10
245.07445831651285
20
-132.40126815877844
42
0.41421356237313667
10
245.57445831651285
20
-131.90126815877844
10
245.57445831651285
20
-118.90126815877842
42
0.41421356237313667
10
245.07445831651285
20
-118.40126815877841
0
LWPOLYLINE
5
165
100
AcDbEntity
8
0
100
AcDbPolyline
90
8
70
1
43
0.0
10
53.024458316512828
20
-118.90126815877842
42
0.41421356237310542
10
52.524458316512828
20
-118.40126815877841
10
39.524458316512828
20
-118.40126815877841
42
0.41421356237310542
10
39.024458316512835
20
-118.90126815877842
10
39.024458316512835
20
-131.90126815877844
42
0.41421356237310542
10
39.524458316512828
20
-132.40126815877844
10
52.524458316512828
20
-132.40126815877844
42
0.4142135623731002
10
53.024458316512835
20
-131.90126815877844
0
LWPOLYLINE
5
166
100
AcDbEntity
8
0
100
AcDbPolyline
90
8
70
1
43
0.0
10
301.46195831651289
20
-42.20126815877839
42
0.41421356237307422
10
300.96195831651283
20
-42.701268158778383
10
300.96195831651289
20
-55.701268158778383
42
0.41421356237311585
10
301.46195831651283
20
-56.201268158778397
10
314.46195831651289
20
-56.201268158778383
42
0.41421356237301699
10
314.96195831651283
20
-55.70126815877839
10
314.96195831651289
20
-42.701268158778383
42
0.41421356237312101
10
314.46195831651289
20
-42.201268158778376
0
LWPOLYLINE
5
167
100
AcDbEntity
8
0
100
AcDbPolyline
90
8
70
1
43
0.0
10
270.76820831651287
20
-99.351268158778396
42
0.4142135623730534
10
270.26820831651287
20
-99.85126815877841
10
270.26820831651287
20
-112.8512681587784
42
0.41421356237309509
10
270.76820831651287
20
-113.35126815877841
10
271.26820831651281
20
-113.35126815877841
42
0.41421356237303264
10
271.76820831651287
20
-112.85126815877842
10
271.76820831651287
20
-99.85126815877841
42
0.41421356237313667
10
271.26820831651281
20
-99.351268158778424
0
LWPOLYLINE
5
168
100
AcDbEntity
8
0
100
AcDbPolyline
90
8
70
1
43
0.0
10
275.26820831651287
20
-99.351268158778396
42
0.4142135623730222
10
274.76820831651287
20
-99.85126815877841
10
274.76820831651287
20
-112.8512681587784
42
0.41421356237308465
10
275.26820831651287
20
-113.35126815877841
10
288.26820831651287
20
-113.35126815877841
42
0.41421356237303264
10
288.76820831651287
20
-112.85126815877842
10
288.76820831651287
20
-99.85126815877841
42
0.41421356237315754
10
288.26820831651281
20
-99.351268158778424
0
LWPOLYLINE
5
169
100
AcDbEntity
8
0
100
AcDbPolyline
90
8
70
1
43
0.0
10
39.524458316512828
20
-61.251268158778402
42
0.41421356237309509
10
39.024458316512835
20
-61.751268158778394
10
39.024458316512835
20
-74.751268158778402
42
0.41421356237309509
10
39.524458316512828
20
-75.251268158778416
10
52.524458316512828
20
-75.251268158778402
42
0.41421356237308982
10
53.024458316512835
20
-74.751268158778416
10
53.024458316512828
20
-61.751268158778394
42
0.41421356237309509
10
52.524458316512828
20
-61.251268158778409
0
LWPOLYLINE
5
170
100
AcDbEntity
8
0
100
AcDbPolyline
90
8
70
1
43
0.0
10
63.336958316512835
20
-118.40126815877841
42
0.41421356237310542
10
62.836958316512849
20
-118.90126815877842
10
62.836958316512835
20
-131.90126815877844
42
0.41421356237310542
10
63.336958316512835
20
-132.40126815877844
10
76.33695831651282
20
-132.40126815877844
42
0.4142135623731002
10
76.836958316512835
20
-131.90126815877844
10
76.83695831651282
20
-118.90126815877842
42
0.41421356237310542
10
76.33695831651282
20
-118.40126815877841
0
LWPOLYLINE
5
171
100
AcDbEntity
8
0
100
AcDbPolyline
90
8
70
1
43
0.0
10
230.02445831651283
20
-99.351268158778396
42
0.4142135623730534
10
229.52445831651283
20
-99.85126815877841
10
229.52445831651283
20
-112.8512681587784
42
0.41421356237309509
10
230.02445831651283
20
-113.35126815877841
10
243.02445831651283
20
-113.35126815877841
42
0.41421356237300133
10
243.52445831651283
20
-112.85126815877842
10
243.52445831651283
20
-99.85126815877841
42
0.41421356237310542
10
243.02445831651283
20
-99.351268158778439
0
LWPOLYLINE
5
172
100
AcDbEntity
8
0
100
AcDbPolyline
90
8
70
1
43
0.0
10
87.149458316512835
20
-118.40126815877841
42
0.41421356237310542
10
86.649458316512835
20
-118.90126815877842
10
86.649458316512835
20
-131.90126815877844
42
0.41421356237310542
10
87.149458316512835
20
-132.40126815877844
10
100.14945831651282
20
-132.40126815877844
42
0.41421356237309509
10
100.64945831651283
20
-131.90126815877844
10
100.64945831651283
20
-118.90126815877842
42
0.41421356237309509
10
100.14945831651282
20
-118.40126815877841
0
LWPOLYLINE
5
173
100
AcDbEntity
8
0
100
AcDbPolyline
90
8
70
1
43
0.0
10
225.26195831651285
20
-42.20126815877839
42
0.4142135623730222
10
224.7619583165129
20
-42.701268158778383
10
224.76195831651285
20
-55.701268158778383
42
0.41421356237312629
10
225.26195831651285
20
-56.201268158778397
10
238.26195831651287
20
-56.201268158778383
42
0.414213562373069
10
238.76195831651287
20
-55.70126815877839
10
238.76195831651287
20
-42.701268158778383
42
0.41421356237313145
10
238.26195831651287
20
-42.201268158778376
0
LWPOLYLINE
5
174
100
AcDbEntity
8
0
100
AcDbPolyline
90
8
70
1
43
0.0
10
314.69945831651285
20
-118.90126815877842
42
0.41421356237310542
10
314.19945831651285
20
-118.40126815877839
10
313.69945831651285
20
-118.40126815877841
42
0.4142135623730534
10
313.19945831651285
20
-118.90126815877842
10
313.19945831651285
20
-131.90126815877844
42
0.41421356237311585
10
313.69945831651279
20
-132.40126815877844
10
314.19945831651285
20
-132.40126815877844
42
0.41421356237310542
10
314.69945831651279
20
-131.90126815877844
0
LWPOLYLINE
5
175
100
AcDbEntity
8
0
100
AcDbPolyline
90
8
70
1
43
0.0
10
292.19945831651285
20
-118.40126815877841
42
0.4142135623730534
10
291.69945831651285
20
-118.90126815877842
10
291.69945831651285
20
-131.90126815877844
42
0.41421356237311585
10
292.19945831651279
20
-132.40126815877844
10
292.69945831651279
20
-132.40126815877844
42
0.41421356237313667
10
293.19945831651285
20
-131.90126815877844
10
293.19945831651285
20
-118.90126815877842
42
0.41421356237315754
10
292.69945831651279
20
-118.40126815877841
0
LWPOLYLINE
5
176
100
AcDbEntity
8
0
100
AcDbPolyline
90
8
70
1
43
0.0
10
266.07445831651285
20
-118.40126815877841
42
0.4142135623730534
10
265.57445831651285
20
-118.90126815877842
10
265.57445831651285
20
-131.90126815877844
42
0.41421356237313667
10
266.07445831651285
20
-132.40126815877844
10
266.57445831651285
20
-132.40126815877844
42
0.41421356237313667
10
267.07445831651285
20
-131.90126815877844
10
267.07445831651285
20
-118.90126815877842
42
0.41421356237313667
10
266.57445831651285
20
-118.40126815877841
0
LWPOLYLINE
5
177
100
AcDbEntity
8
0
100
AcDbPolyline
90
8
70
1
43
0.0
10
104.14945831651282
20
-118.40126815877841
42
0.41421356237310542
10
103.64945831651283
20
-118.90126815877842
10
103.64945831651283
20
-131.90126815877844
42
0.41421356237310542
10
104.14945831651282
20
-132.40126815877844
10
104.64945831651283
20
-132.40126815877844
42
0.41421356237307422
10
105.14945831651282
20
-131.90126815877844
10
105.14945831651282
20
-118.90126815877842
42
0.41421356237310542
10
104.64945831651283
20
-118.40126815877841
0
LWPOLYLINE
5
178
100
AcDbEntity
8
0
100
AcDbPolyline
90
8
70
1
43
0.0
10
249.07445831651285
20
-99.351268158778396
42
0.4142135623730534
10
248.57445831651285
20
-99.85126815877841
10
248.57445831651285
20
-112.8512681587784
42
0.41421356237309509
10
249.07445831651285
20
-113.35126815877841
10
262.07445831651285
20
-113.35126815877841
42
0.41421356237300133
10
262.57445831651285
20
-112.85126815877842
10
262.57445831651285
20
-99.85126815877841
42
0.41421356237310542
10
262.07445831651285
20
-99.351268158778439
0
LWPOLYLINE
5
179
100
AcDbEntity
8
0
100
AcDbPolyline
90
8
70
1
43
0.0
10
210.97445831651285
20
-99.351268158778396
42
0.4142135623730222
10
210.47445831651288
20
-99.85126815877841
10
210.47445831651285
20
-112.8512681587784
42
0.41421356237308465
10
210.97445831651285
20
-113.35126815877841
10
223.97445831651285
20
-113.35126815877841
42
0.41421356237303264
10
224.47445831651288
20
-112.85126815877842
10
224.47445831651288
20
-99.85126815877841
42
0.41421356237313667
10
223.97445831651285
20
-99.351268158778424
0
LWPOLYLINE
5
180
100
AcDbEntity
8
0
100
AcDbPolyline
90
8
70
1
43
0.0
10
296.69945831651285
20
-118.40126815877841
42
0.4142135623730222
10
296.19945831651285
20
-118.90126815877842
10
296.19945831651285
20
-131.90126815877844
42
0.41421356237310542
10
296.69945831651285
20
-132.40126815877844
10
309.69945831651285
20
-132.40126815877844
42
0.41421356237313667
10
310.19945831651285
20
-131.90126815877844
10
310.19945831651285
20
-118.90126815877842
42
0.41421356237315754
10
309.69945831651279
20
-118.40126815877841
0
LWPOLYLINE
5
181
100
AcDbEntity
8
0
100
AcDbPolyline
90
8
70
1
43
0.0
10
134.77445831651283
20
-99.351268158778396
42
0.41421356237309509
10
134.27445831651283
20
-99.85126815877841
10
134.27445831651283
20
-112.8512681587784
42
0.41421356237307422
10
134.77445831651283
20
-113.35126815877841
10
147.77445831651283
20
-113.35126815877841
42
0.41421356237307422
10
148.27445831651283
20
-112.85126815877842
10
148.27445831651283
20
-99.85126815877841
42
0.41421356237307422
10
147.77445831651283
20
-99.351268158778424
0
LWPOLYLINE
5
182
100
AcDbEntity
8
0
100
AcDbPolyline
90
8
70
1
43
0.0
10
249.07445831651285
20
-118.40126815877841
42
0.4142135623730534
10
248.57445831651285
20
-118.90126815877842
10
248.57445831651285
20
-131.90126815877844
42
0.41421356237313667
10
249.07445831651285
20
-132.40126815877844
10
262.07445831651285
20
-132.40126815877844
42
0.41421356237310542
10
262.57445831651285
20
-131.90126815877844
10
262.57445831651285
20
-118.90126815877842
42
0.41421356237310542
10
262.07445831651285
20
-118.40126815877841
0
LWPOLYLINE
5
183
100
AcDbEntity
8
0
100
AcDbPolyline
90
8
70
1
43
0.0
10
205.42445831651287
20
-99.85126815877841
42
0.41421356237313667
10
204.92445831651284
20
-99.351268158778396
10
191.92445831651284
20
-99.351268158778396
42
0.4142135623730222
10
191.42445831651284
20
-99.85126815877841
10
191.42445831651284
20
-112.8512681587784
42
0.41421356237308465
10
191.92445831651284
20
-113.35126815877841
10
204.92445831651284
20
-113.35126815877841
42
0.41421356237303264
10
205.42445831651287
20
-112.85126815877842
0
LWPOLYLINE
5
184
100
AcDbEntity
8
0
100
AcDbPolyline
90
8
70
1
43
0.0
10
172.87445831651283
20
-99.351268158778396
42
0.4142135623730222
10
172.37445831651286
20
-99.85126815877841
10
172.37445831651283
20
-112.8512681587784
42
0.41421356237308465
10
172.87445831651283
20
-113.35126815877841
10
185.87445831651283
20
-113.35126815877841
42
0.41421356237303264
10
186.37445831651286
20
-112.85126815877842
10
186.37445831651286
20
-99.85126815877841
42
0.41421356237313667
10
185.87445831651283
20
-99.351268158778424
0
LWPOLYLINE
5
185
100
AcDbEntity
8
0
100
AcDbPolyline
90
8
70
1
43
0.0
10
115.72445831651282
20
-99.351268158778396
42
0.41421356237309509
10
115.22445831651282
20
-99.85126815877841
10
115.22445831651282
20
-112.8512681587784
42
0.41421356237307422
10
115.72445831651282
20
-113.35126815877841
10
128.72445831651282
20
-113.35126815877841
42
0.41421356237306384
10
129.22445831651285
20
-112.85126815877842
10
129.22445831651285
20
-99.85126815877841
42
0.41421356237309509
10
128.72445831651282
20
-99.351268158778424
0
LWPOLYLINE
5
186
100
AcDbEntity
8
0
100
AcDbPolyline
90
8
70
1
43
0.0
10
153.82445831651285
20
-99.351268158778396
42
0.41421356237309509
10
153.32445831651285
20
-99.85126815877841
10
153.32445831651285
20
-112.8512681587784
42
0.41421356237307422
10
153.82445831651285
20
-113.35126815877841
10
166.82445831651282
20
-113.35126815877841
42
0.41421356237303264
10
167.32445831651285
20
-112.85126815877842
10
167.32445831651285
20
-99.85126815877841
42
0.41421356237313667
10
166.82445831651282
20
-99.351268158778424
0
LWPOLYLINE
5
187
100
AcDbEntity
8
0
100
AcDbPolyline
90
8
70
1
43
0.0
10
244.31195831651283
20
-42.20126815877839
42
0.41421356237307422
10
243.8119583165128
20
-42.701268158778383
10
243.81195831651283
20
-55.701268158778383
42
0.41421356237313667
10
244.31195831651283
20
-56.20126815877839
10
257.31195831651286
20
-56.201268158778383
42
0.41421356237301699
10
257.81195831651286
20
-55.70126815877839
10
257.81195831651286
20
-42.701268158778383
42
0.41421356237312101
10
257.31195831651286
20
-42.20126815877839
0
LWPOLYLINE
5
188
100
AcDbEntity
8
0
100
AcDbPolyline
90
8
70
1
43
0.0
10
272.88695831651285
20
-118.40126815877841
42
0.4142135623730534
10
272.38695831651285
20
-118.90126815877842
10
272.38695831651285
20
-131.90126815877844
42
0.41421356237313667
10
272.88695831651285
20
-132.40126815877844
10
285.88695831651285
20
-132.40126815877844
42
0.41421356237310542
10
286.38695831651285
20
-131.90126815877844
10
286.38695831651285
20
-118.90126815877842
42
0.41421356237310542
10
285.88695831651285
20
-118.40126815877841
0
LWPOLYLINE
5
189
100
AcDbEntity
8
0
100
AcDbPolyline
90
8
70
1
43
0.0
10
200.66195831651285
20
-42.701268158778383
42
0.41421356237313145
10
200.16195831651285
20
-42.20126815877839
10
187.16195831651282
20
-42.20126815877839
42
0.41421356237301699
10
186.66195831651282
20
-42.701268158778376
10
186.66195831651282
20
-55.701268158778383
42
0.41421356237312629
10
187.16195831651282
20
-56.201268158778397
10
200.16195831651285
20
-56.201268158778383
42
0.414213562373069
10
200.66195831651285
20
-55.70126815877839
0
LWPOLYLINE
5
190
100
AcDbEntity
8
0
100
AcDbPolyline
90
8
70
1
43
0.0
10
82.649458316512835
20
-118.40126815877841
42
0.41421356237310542
10
82.149458316512849
20
-118.90126815877842
10
82.149458316512849
20
-131.90126815877844
42
0.41421356237310542
10
82.649458316512835
20
-132.40126815877844
10
83.149458316512835
20
-132.40126815877844
42
0.41421356237309509
10
83.649458316512835
20
-131.90126815877844
10
83.649458316512835
20
-118.90126815877842
42
0.41421356237309509
10
83.149458316512835
20
-118.40126815877841
0
LWPOLYLINE
5
191
100
AcDbEntity
8
0
100
AcDbPolyline
90
8
70
1
43
0.0
10
206.21195831651283
20
-42.20126815877839
42
0.4142135623730222
10
205.71195831651289
20
-42.701268158778383
10
205.71195831651283
20
-55.701268158778383
42
0.41421356237312629
10
206.21195831651283
20
-56.20126815877839
10
219.21195831651283
20
-56.201268158778383
42
0.41421356237301699
10
219.71195831651283
20
-55.70126815877839
10
219.71195831651283
20
-42.701268158778383
42
0.41421356237312101
10
219.21195831651283
20
-42.201268158778376
0
LWPOLYLINE
5
192
100
AcDbEntity
8
0
100
AcDbPolyline
90
8
70
1
43
0.0
10
263.36195831651287
20
-42.20126815877839
42
0.41421356237307422
10
262.86195831651281
20
-42.701268158778383
10
262.86195831651287
20
-55.701268158778383
42
0.41421356237313667
10
263.36195831651287
20
-56.20126815877839
10
276.36195831651287
20
-56.201268158778383
42
0.41421356237301699
10
276.86195831651281
20
-55.70126815877839
10
276.86195831651287
20
-42.701268158778383
42
0.41421356237312101
10
276.36195831651287
20
-42.20126815877839
0
ENDSEC
0
SECTION
2
OBJECTS
0
DICTIONARY
5
C
100
AcDbDictionary
3
ACAD_GROUP
350
D
3
ACAD_MLINESTYLE
350
17
0
DICTIONARY
5
D
100
AcDbDictionary
0
DICTIONARY
5
1A
330
C
100
AcDbDictionary
0
DICTIONARY
5
17
100
AcDbDictionary
0
ENDSEC
0
EOF
